<svg width="30" height="30" viewBox="0 0 30 30" fill="none" xmlns="http://www.w3.org/2000/svg">
<path d="M20 2.5H10C5.86375 2.5 2.5 5.86375 2.5 10V26.25C2.5 26.5815 2.6317 26.8995 2.86612 27.1339C3.10054 27.3683 3.41848 27.5 3.75 27.5H20C24.1362 27.5 27.5 24.1362 27.5 20V10C27.5 5.86375 24.1362 2.5 20 2.5ZM25 20C25 22.7575 22.7575 25 20 25H5V10C5 7.2425 7.2425 5 10 5H20C22.7575 5 25 7.2425 25 10V20Z" fill="#C4C4C4"/>
<path d="M8.75 18.7338V21.2325H11.2487L18.16 14.33L15.6625 11.8325L8.75 18.7338Z" fill="#C4C4C4"/>
<path d="M19.3373 13.1525L16.8398 10.6525L18.7436 8.75L21.2436 11.2487L19.3373 13.1525Z" fill="#C4C4C4"/>
</svg>
