<svg width="50" height="50" viewBox="0 0 50 50" fill="none" xmlns="http://www.w3.org/2000/svg">
<path d="M8.33325 12.5H41.6666L38.3749 42.125C38.2621 43.1445 37.7771 44.0866 37.0129 44.7709C36.2487 45.4551 35.259 45.8334 34.2332 45.8333H15.7666C14.7408 45.8334 13.7511 45.4551 12.9869 44.7709C12.2227 44.0866 11.7378 43.1445 11.6249 42.125L8.33325 12.5Z" stroke="black" stroke-width="4.16667" stroke-linecap="round" stroke-linejoin="round"/>
<path d="M15.3021 6.55627C15.6391 5.84162 16.1723 5.23751 16.8396 4.81442C17.5069 4.39132 18.2807 4.16668 19.0708 4.16669H30.9292C31.7196 4.16628 32.4939 4.39074 33.1616 4.81386C33.8293 5.23698 34.3629 5.8413 34.7 6.55627L37.5 12.5H12.5L15.3021 6.55627Z" stroke="black" stroke-width="4.16667" stroke-linecap="round" stroke-linejoin="round"/>
<path d="M4.16663 12.5H45.8333" stroke="black" stroke-width="4.16667" stroke-linecap="round" stroke-linejoin="round"/>
<path d="M20.8333 22.9167V33.3334" stroke="black" stroke-width="4.16667" stroke-linecap="round" stroke-linejoin="round"/>
<path d="M29.1666 22.9167V33.3334" stroke="black" stroke-width="4.16667" stroke-linecap="round" stroke-linejoin="round"/>
</svg>
