<svg width="50" height="50" viewBox="0 0 50 50" fill="none" xmlns="http://www.w3.org/2000/svg">
<path d="M33.3334 4.16669H16.6667C9.773 4.16669 4.16675 9.77294 4.16675 16.6667V43.75C4.16675 44.3026 4.38624 44.8325 4.77694 45.2232C5.16764 45.6139 5.69755 45.8334 6.25008 45.8334H33.3334C40.2272 45.8334 45.8334 40.2271 45.8334 33.3334V16.6667C45.8334 9.77294 40.2272 4.16669 33.3334 4.16669ZM41.6667 33.3334C41.6667 37.9292 37.9292 41.6667 33.3334 41.6667H8.33341V16.6667C8.33341 12.0709 12.0709 8.33335 16.6667 8.33335H33.3334C37.9292 8.33335 41.6667 12.0709 41.6667 16.6667V33.3334Z" fill="black"/>
<path d="M14.5833 31.2229V35.3875H18.7478L30.2666 23.8833L26.1041 19.7208L14.5833 31.2229Z" fill="black"/>
<path d="M32.2292 21.9208L28.0667 17.7541L31.2396 14.5833L35.4062 18.7479L32.2292 21.9208Z" fill="black"/>
</svg>
