<svg width="19" height="22" viewBox="0 0 19 22" fill="none" xmlns="http://www.w3.org/2000/svg">
<path d="M13.0566 8.00405C13.5166 6.57705 13.7496 5.32805 13.7496 4.25105C13.7496 1.85205 12.8106 0.00305176 11.2496 0.00305176C10.4026 0.00305176 10.1406 0.508052 9.8126 1.75005C9.8296 1.68505 9.6496 2.38405 9.5976 2.57105C9.4966 2.93105 9.3206 3.54105 9.0706 4.40205C9.06381 4.42506 9.0537 4.44696 9.0406 4.46705L6.1746 8.95305C5.49643 10.0142 4.49574 10.8298 3.3196 11.2801L2.0626 11.7611C1.67819 11.9083 1.35799 12.1863 1.15826 12.5462C0.958544 12.9062 0.892096 13.325 0.9706 13.7291L1.6566 17.2671C1.73844 17.6892 1.93951 18.079 2.236 18.3904C2.5325 18.7017 2.91201 18.9216 3.3296 19.0241L11.5796 21.0461C12.7957 21.344 14.0802 21.1497 15.1538 20.5055C16.2274 19.8613 17.0033 18.8193 17.3126 17.6061L18.8866 11.4331C18.99 11.0271 18.9994 10.6028 18.9138 10.1926C18.8283 9.78249 18.6502 9.39731 18.3931 9.0665C18.136 8.7357 17.8067 8.46801 17.4303 8.28387C17.054 8.09974 16.6406 8.00403 16.2216 8.00405H13.0566V8.00405Z" fill="black"/>
</svg>
