<svg width="36" height="44" viewBox="0 0 36 44" fill="none" xmlns="http://www.w3.org/2000/svg">
<path d="M18.1297 2.73496C18.9797 0.292459 22.2097 -0.832541 24.2047 1.25996C24.6147 1.68496 25.0197 2.14496 25.2947 2.55746C26.0947 3.75746 26.4322 5.33996 26.5547 6.88246C26.6797 8.44996 26.5947 10.135 26.4347 11.6625C26.2722 13.1925 26.0322 14.5975 25.8322 15.62L25.8072 15.75H28.0147C29.1134 15.7498 30.1988 15.991 31.194 16.4566C32.1891 16.9222 33.0699 17.6007 33.7739 18.4443C34.4779 19.2878 34.988 20.2757 35.2681 21.3381C35.5482 22.4005 35.5914 23.5115 35.3947 24.5925L33.6847 33.995C33.406 35.5293 32.8113 36.9889 31.9384 38.2812C31.0656 39.5734 29.9336 40.6701 28.6143 41.5016C27.295 42.3331 25.8173 42.8812 24.2749 43.1112C22.7325 43.3411 21.1592 43.2479 19.6547 42.8375L5.65472 39.02C4.5351 38.7142 3.52272 38.1028 2.73102 37.2541C1.93932 36.4054 1.39956 35.3531 1.17222 34.215L0.289718 29.8025C-0.405282 26.33 2.24972 23.405 5.07222 22.29C5.83744 22.0054 6.54786 21.591 7.17222 21.065C11.4397 17.28 12.9847 14.2575 15.6347 8.93996C16.5197 7.16496 17.4297 4.74996 18.1297 2.73496V2.73496ZM23.0422 16.6975V16.6925L23.0472 16.675L23.0647 16.5975C23.1803 16.1131 23.2853 15.6264 23.3797 15.1375C23.5697 14.1675 23.7972 12.8375 23.9472 11.4C24.0997 9.95746 24.1722 8.43996 24.0622 7.07996C23.9522 5.68996 23.6622 4.61746 23.2122 3.94246C22.9656 3.60277 22.6932 3.28265 22.3972 2.98496C21.8997 2.46496 20.8272 2.58496 20.4922 3.55496C19.7847 5.58996 18.8322 8.12996 17.8722 10.055C15.2047 15.4075 13.4822 18.81 8.83222 22.935C7.98222 23.69 6.97222 24.2275 5.99222 24.615C3.79222 25.485 2.37472 27.485 2.74222 29.3125L3.62222 33.725C3.75895 34.4081 4.08329 35.0397 4.55887 35.5488C5.03444 36.058 5.64246 36.4245 6.31472 36.6075L20.3147 40.425C21.4845 40.7439 22.7078 40.8162 23.9071 40.6373C25.1063 40.4584 26.2553 40.0322 27.2811 39.3858C28.3069 38.7394 29.1871 37.8868 29.866 36.8822C30.5449 35.8776 31.0076 34.7429 31.2247 33.55L32.9347 24.145C33.0658 23.4243 33.037 22.6837 32.8503 21.9754C32.6636 21.2671 32.3235 20.6085 31.8542 20.0462C31.3848 19.4838 30.7977 19.0314 30.1342 18.7211C29.4707 18.4107 28.7472 18.2498 28.0147 18.25H24.2522C24.0626 18.2495 23.8755 18.2059 23.7052 18.1225C23.5348 18.0391 23.3857 17.918 23.2691 17.7684C23.1526 17.6188 23.0715 17.4446 23.0322 17.2591C22.9929 17.0735 22.9963 16.8815 23.0422 16.6975V16.6975Z" fill="#C4C4C4"/>
</svg>
